#N canvas 643 159 935 551 10;
#X obj 187 -6 loadbang;
#X obj 36 184 delay 500;
#X msg 187 201 open speech.wav;
#X msg 36 222 start;
#X obj 187 254 readsf~;
#X obj 164 469 output~;
#X obj 290 473 wsprobe~;
#X obj 187 136 bng 15 250 50 0 empty empty empty 17 7 0 10 -262144
-1 -1;
#X obj 186 405 *~;
#X obj 187 65 vradio 15 1 0 2 empty empty empty 0 -8 0 10 -262144 -1
-1 0;
#X text 207 62 provided file;
#X text 207 78 microphone;
#X obj 187 110 route 0 1;
#X obj 77 324 adc~;
#X msg 187 30 0;
#X msg 131 220 0;
#X obj 212 148 s \$0-r1;
#X obj 77 292 r \$0-r1;
#X obj 131 186 r \$0-r1;
#X obj 110 369 spigot~;
#X msg 149 278 0;
#X msg 117 325 1;
#X floatatom 329 -9 5 0 0 0 - - -;
#X obj 329 29 LFO~ 10 1;
#X floatatom 450 265 5 0 0 0 - - -;
#X connect 0 0 14 0;
#X connect 1 0 3 0;
#X connect 2 0 4 0;
#X connect 3 0 4 0;
#X connect 3 0 20 0;
#X connect 4 0 8 0;
#X connect 4 1 9 0;
#X connect 7 0 1 0;
#X connect 7 0 2 0;
#X connect 8 0 5 0;
#X connect 8 0 5 1;
#X connect 8 0 6 0;
#X connect 9 0 12 0;
#X connect 12 0 7 0;
#X connect 12 1 16 0;
#X connect 13 0 19 0;
#X connect 14 0 9 0;
#X connect 15 0 4 0;
#X connect 17 0 13 0;
#X connect 17 0 21 0;
#X connect 18 0 15 0;
#X connect 19 1 8 0;
#X connect 20 0 19 1;
#X connect 21 0 19 1;
#X connect 22 0 23 0;
#X connect 23 0 8 1;
#X connect 23 1 24 0;
