#N canvas 953 73 965 798 10;
#X obj 187 -6 loadbang;
#X obj -118 171 delay 500;
#X msg 33 188 open speech.wav;
#X msg -118 209 start;
#X obj 33 241 readsf~;
#X obj 239 434 wsprobe~;
#X obj 33 123 bng 15 250 50 0 empty empty empty 17 7 0 10 -262144 -1
-1;
#X obj 119 317 *~;
#X obj 186 71 vradio 15 1 0 2 empty empty empty 0 -8 0 10 -262144 -1
-1 0;
#X text 207 62 provided file;
#X text 207 78 microphone;
#X obj 33 97 route 0 1;
#X obj -162 309 adc~;
#X msg 187 30 0;
#X msg -23 207 0;
#X obj 58 135 s \$0-r1;
#X obj -156 244 r \$0-r1;
#X obj -23 173 r \$0-r1;
#X obj -105 357 spigot~;
#X floatatom 329 7 5 0 0 0 - - -;
#X floatatom 450 265 5 0 0 0 - - -;
#X text -247 303 LIVE INPUT;
#X msg -62 265 0;
#X msg -105 297 1;
#X obj 314 328 LFO~-help;
#X obj 355 389 wsprobe~-help;
#X floatatom 252 751 5 0 0 0 - - -;
#X obj 68 428 output~;
#X text 488 170 added a connection in LFO;
#X obj 293 53 LFO~ 10 1;
#X connect 0 0 13 0;
#X connect 1 0 3 0;
#X connect 2 0 4 0;
#X connect 3 0 4 0;
#X connect 3 0 22 0;
#X connect 4 0 7 0;
#X connect 4 1 8 0;
#X connect 6 0 1 0;
#X connect 6 0 2 0;
#X connect 7 0 5 0;
#X connect 7 0 27 0;
#X connect 7 0 27 1;
#X connect 8 0 11 0;
#X connect 11 0 6 0;
#X connect 11 1 15 0;
#X connect 12 0 18 0;
#X connect 13 0 8 0;
#X connect 14 0 4 0;
#X connect 16 0 12 0;
#X connect 16 0 23 0;
#X connect 17 0 14 0;
#X connect 18 1 7 0;
#X connect 19 0 29 0;
#X connect 22 0 18 1;
#X connect 23 0 18 1;
#X connect 29 0 7 1;
#X connect 29 1 20 0;
