#N canvas 61 28 710 756 10;
#X obj 65 33 loadbang;
#X obj 73 66 bng 15 250 50 0 empty empty empty 17 7 0 10 -262144 -1
-1;
#X obj -30 111 delay 500;
#X obj 68 167 readsf~;
#X msg 72 114 open speech.wav;
#X msg -31 146 start;
#X msg 235 110 0;
#X obj 71 279 hilbert~;
#X obj 68 323 *~;
#X obj 69 355 -~;
#X obj 140 349 *~;
#X obj 161 301 cos~;
#X obj 205 302 cos~;
#X obj 166 404 output~;
#X obj 47 414 wsprobe~;
#X floatatom 217 182 5 0 0 0 - - -;
#X obj 215 215 sig~;
#X obj 214 159 hsl 128 15 -1000 1000 0 0 empty empty -1000____Frequency_Shift____1000
-2 -8 0 10 -262144 -1 -1 2600 1;
#X obj 213 251 phasor~;
#X obj 270 285 +~ -0.25;
#X connect 0 0 1 0;
#X connect 0 0 6 0;
#X connect 1 0 4 0;
#X connect 1 0 2 0;
#X connect 2 0 5 0;
#X connect 3 0 7 0;
#X connect 3 1 1 0;
#X connect 4 0 3 0;
#X connect 5 0 3 0;
#X connect 6 0 17 0;
#X connect 7 0 8 0;
#X connect 7 1 10 0;
#X connect 8 0 9 0;
#X connect 9 0 14 0;
#X connect 9 0 13 0;
#X connect 9 0 13 1;
#X connect 10 0 9 1;
#X connect 11 0 8 1;
#X connect 12 0 10 1;
#X connect 15 0 16 0;
#X connect 16 0 18 0;
#X connect 17 0 15 0;
#X connect 18 0 11 0;
#X connect 18 0 19 0;
#X connect 19 0 12 0;
