#N canvas 382 114 828 740 10;
#X obj 297 337 hsl 128 15 0 1 0 0 empty empty DEPTH 50 8 0 10 -262144
-1 -1 12700 1;
#X floatatom 456 337 5 0 0 0 - - -;
#X obj 72 326 *~;
#X obj 359 -65 loadbang;
#X obj 75 159 osc~;
#X obj 572 290 inlet;
#X obj 456 278 outlet;
#X obj 529 353 outlet;
#X floatatom 456 254 5 0 0 0 - - -;
#X text 453 198 RESET;
#X text 293 263 0;
#X text 413 265 50;
#X text 292 354 0;
#X text 418 351 1;
#X text 385 176 sine;
#X text 385 197 square;
#X obj 71 361 outlet~;
#X obj 359 181 vradio 15 1 0 2 empty empty empty 0 -8 0 10 -262144
-1 -1 0;
#X obj 461 184 bng 15 250 50 0 empty empty empty 17 7 0 10 -262144
-1 -1;
#X obj 230 -7 route 0 1;
#X floatatom 230 129 5 0 0 0 - - -;
#X msg 230 69 1;
#X obj 74 209 *~;
#X msg 359 33 0;
#X msg 255 99 1e+006;
#X obj 73 244 clip~ -1 1;
#X obj 455 -3 bng 15 250 50 0 empty empty empty 17 7 0 10 -262144 -1
-1;
#X obj 301 249 hsl 128 15 0 50 0 0 empty empty SPEED 50 8 0 10 -262144
-1 -1 2540 1;
#X obj 195 262 inlet;
#X obj 218 350 inlet;
#X floatatom 501 72 5 0 0 0 - - -;
#X obj 501 35 f \$2;
#X floatatom 455 71 5 0 0 0 - - -;
#X obj 455 34 f \$1;
#X obj 461 144 r \$0-reset_inlet;
#X obj 455 -38 r \$0-reset;
#X obj 534 199 s \$0-reset;
#X obj 455 101 s \$0-s;
#X obj 501 102 s \$0-d;
#X obj 456 228 r \$0-speed;
#X obj 295 367 s \$0-depth;
#X obj 293 221 r \$0-s;
#X obj 293 279 s \$0-speed;
#X obj 359 219 s \$0-r;
#X obj 75 5 r \$0-speed;
#X obj 230 -38 r \$0-r;
#X obj 87 293 r \$0-depth;
#X obj 456 307 r \$0-depth;
#X obj 572 324 s \$0-reset_inlet;
#X obj 294 310 r \$0-d;
#X obj 404 32 s \$0-i;
#X floatatom 96 125 5 0 0 0 - - -;
#X obj 96 92 r \$0-i;
#X obj 152 53 == 0;
#X obj 152 94 spigot;
#X text 138 23 if speed = 0 \, then do not alter audio;
#X connect 0 0 40 0;
#X connect 1 0 7 0;
#X connect 2 0 16 0;
#X connect 3 0 23 0;
#X connect 3 0 26 0;
#X connect 4 0 22 0;
#X connect 5 0 48 0;
#X connect 8 0 6 0;
#X connect 17 0 43 0;
#X connect 18 0 36 0;
#X connect 19 0 21 0;
#X connect 19 1 24 0;
#X connect 20 0 22 1;
#X connect 21 0 20 0;
#X connect 22 0 25 0;
#X connect 23 0 17 0;
#X connect 24 0 20 0;
#X connect 25 0 2 0;
#X connect 26 0 33 0;
#X connect 26 0 31 0;
#X connect 26 0 50 0;
#X connect 27 0 42 0;
#X connect 28 0 42 0;
#X connect 29 0 40 0;
#X connect 30 0 38 0;
#X connect 31 0 30 0;
#X connect 32 0 37 0;
#X connect 33 0 32 0;
#X connect 34 0 18 0;
#X connect 35 0 26 0;
#X connect 39 0 8 0;
#X connect 41 0 27 0;
#X connect 44 0 4 0;
#X connect 44 0 53 0;
#X connect 45 0 19 0;
#X connect 46 0 2 1;
#X connect 47 0 1 0;
#X connect 49 0 0 0;
#X connect 51 0 4 1;
#X connect 52 0 51 0;
#X connect 53 0 54 1;
#X connect 53 0 54 0;
#X connect 54 0 51 0;
#X coords 0 -1 1 1 250 200 1 270 170;
