#N canvas 267 214 713 563 12;
#X obj 105 44 bng 15 250 50 0 empty empty empty 17 7 0 10 -262144 -1
-1;
#X obj 214 157 textfile;
#X msg 214 67 rewind;
#X msg 53 120 clear;
#X msg 105 120 read \$1 cr;
#X obj 214 192 unpack 0 0 0 0 0 0 0 0 0 0 0 0;
#X floatatom 24 233 5 0 0 0 - - -;
#X floatatom 80 233 5 0 0 0 - - -;
#X floatatom 136 233 5 0 0 0 - - -;
#X floatatom 192 233 5 0 0 0 - - -;
#X floatatom 248 233 5 0 0 0 - - -;
#X floatatom 304 233 5 0 0 0 - - -;
#X floatatom 360 233 5 0 0 0 - - -;
#X floatatom 416 233 5 0 0 0 - - -;
#X floatatom 473 233 5 0 0 0 - - -;
#X floatatom 529 233 5 0 0 0 - - -;
#X floatatom 585 233 5 0 0 0 - - -;
#X floatatom 641 233 5 0 0 0 - - -;
#X obj 136 253 - 1;
#X obj 136 276 * 25;
#X obj 136 299 + 125;
#X floatatom 136 370 5 0 0 0 - - -;
#X obj 248 253 - 1;
#X floatatom 248 370 5 0 0 0 - - -;
#X obj 360 253 - 1;
#X floatatom 360 370 5 0 0 0 - - -;
#X obj 24 253 - 1;
#X floatatom 24 369 5 0 0 0 - - -;
#X obj 24 276 * 5;
#X obj 24 299 + 95;
#X obj 248 276 * 50;
#X obj 248 299 + 550;
#X obj 360 276 * 50;
#X obj 360 299 + 1350;
#X floatatom 80 370 5 0 0 0 - - -;
#X obj 80 253 - 63;
#X obj 80 276 / 20;
#X obj 80 323 pow;
#X msg 80 299 10;
#X floatatom 192 370 5 0 0 0 - - -;
#X obj 192 253 - 63;
#X obj 192 276 / 20;
#X obj 192 323 pow;
#X msg 192 299 10;
#X floatatom 304 370 5 0 0 0 - - -;
#X obj 304 253 - 63;
#X obj 304 276 / 20;
#X obj 304 323 pow;
#X msg 304 299 10;
#X floatatom 416 370 5 0 0 0 - - -;
#X obj 416 253 - 63;
#X obj 416 276 / 20;
#X obj 416 323 pow;
#X msg 416 299 10;
#X floatatom 585 370 5 0 0 0 - - -;
#X obj 585 323 pow;
#X obj 585 276 / 16;
#X msg 585 299 2;
#X floatatom 473 370 5 0 0 0 - - -;
#X obj 473 253 - 63;
#X obj 473 276 / 20;
#X obj 473 323 pow;
#X msg 473 299 10;
#X obj 585 347 * 25;
#X floatatom 529 370 5 0 0 0 - - -;
#X floatatom 641 370 5 0 0 0 - - -;
#X obj 222 408 pack 0 0 0 0 0 0 0 0 0 0 0 0;
#X obj 223 96 bng 15 250 50 0 empty empty empty 17 7 0 10 -262144 -1
-1;
#X msg 323 157 stop;
#X obj 214 44 bng 15 250 50 0 empty empty empty 17 7 0 10 -262144 -1
-1;
#X obj 223 120 metro 10;
#X obj 105 89 openpanel;
#N canvas 658 190 763 690 synth 0;
#X obj 250 17 inlet;
#X obj 250 45 unpack 0 0 0 0 0 0 0 0 0 0 0 0;
#X floatatom 60 86 5 0 0 0 - - -;
#X floatatom 116 86 5 0 0 0 - - -;
#X floatatom 172 86 5 0 0 0 - - -;
#X floatatom 228 86 5 0 0 0 - - -;
#X floatatom 286 86 5 0 0 0 - - -;
#X floatatom 340 86 5 0 0 0 - - -;
#X floatatom 395 86 5 0 0 0 - - -;
#X floatatom 452 86 5 0 0 0 - - -;
#X floatatom 504 86 5 0 0 0 - - -;
#X floatatom 565 86 5 0 0 0 - - -;
#X floatatom 621 86 5 0 0 0 - - -;
#X floatatom 677 86 5 0 0 0 - - -;
#X text 70 105 FN;
#X text 126 105 ALF;
#X text 181 105 F1;
#X text 236 105 A1;
#X text 296 105 F2;
#X text 350 105 A2;
#X text 404 105 F3;
#X text 460 105 A3;
#X text 514 105 AHF;
#X text 576 105 V;
#X text 633 105 F0;
#X text 688 105 MS;
#X obj 171 548 +~;
#X obj 513 169 noise~;
#X obj 513 203 *~;
#X obj 358 275 +~;
#X obj 485 392 bp~ 3500 20;
#X obj 210 136 / 50;
#X obj 98 136 / 50;
#X obj 322 136 / 80;
#X obj 437 136 / 150;
#X obj 232 548 +~;
#X obj 192 587 -~;
#X obj 192 641 outlet~;
#X obj 192 614 *~ 4;
#X obj 286 136 sig~;
#X obj 248 392 vcf~ 550 20;
#X obj 60 137 sig~;
#X obj 24 392 vcf~ 250 20;
#X obj 172 137 sig~;
#X obj 136 392 vcf~ 125 20;
#X obj 356 393 vcf~ 1350 20;
#X obj 395 137 sig~;
#X obj 622 204 *~;
#N canvas 1483 522 350 432 larynx 0;
#X obj 90 49 inlet;
#X obj 213 49 inlet;
#X obj 91 387 outlet~;
#X text 92 4 PITCH PULSE GENERATOR;
#X text 186 30 Voice Quality;
#X text 39 30 Fundamental Frequency;
#X text 86 406 Audio Out;
#X floatatom 213 81 0 0 100 0 - - -;
#X obj 91 251 -~ 0.5;
#X obj 90 353 cos~;
#X obj 90 150 sig~;
#X obj 91 183 phasor~;
#X floatatom 90 82 5 0 0 0 - - -;
#X obj 90 319 clip~ -0.5 0.5;
#X obj 90 217 sqrt~;
#X obj 91 285 *~;
#X obj 90 115 * -1;
#X text 141 182 <= basic ramp generator;
#X text 129 215 <= make non-linear;
#X text 123 352 <= index cosine wave;
#X connect 0 0 12 0;
#X connect 1 0 7 0;
#X connect 7 0 15 1;
#X connect 8 0 15 0;
#X connect 9 0 2 0;
#X connect 10 0 11 0;
#X connect 11 0 14 0;
#X connect 12 0 16 0;
#X connect 13 0 9 0;
#X connect 14 0 8 0;
#X connect 15 0 13 0;
#X connect 16 0 10 0;
#X restore 621 171 pd larynx;
#X msg 681 133 10;
#X obj 357 461 fexpr~ $x1 - $x1[-1];
#X obj 248 428 fexpr~ $x1 - $x1[-1];
#X obj 249 462 *~ 15;
#X obj 358 495 *~ 5;
#X text 583 392 <= resonators;
#X text 515 462 <= differentiator;
#X text 403 427 <= differentiator;
#X text 44 428 top lift =>;
#X obj 137 428 hip~ 200;
#X obj 24 330 *~;
#X obj 24 361 -~;
#X obj 136 330 *~;
#X obj 247 330 *~;
#X obj 357 330 *~;
#X obj 486 330 *~;
#X obj 565 133 swap 1;
#X obj 565 168 -;
#X text 406 273 <= excitation mixer;
#X text 533 329 <= amplitude controls;
#X connect 0 0 1 0;
#X connect 1 0 2 0;
#X connect 1 1 3 0;
#X connect 1 2 4 0;
#X connect 1 3 5 0;
#X connect 1 4 6 0;
#X connect 1 5 7 0;
#X connect 1 6 8 0;
#X connect 1 7 9 0;
#X connect 1 8 10 0;
#X connect 1 9 11 0;
#X connect 1 10 12 0;
#X connect 1 11 13 0;
#X connect 2 0 32 0;
#X connect 2 0 41 0;
#X connect 3 0 59 1;
#X connect 4 0 31 0;
#X connect 4 0 43 0;
#X connect 5 0 61 1;
#X connect 6 0 33 0;
#X connect 6 0 39 0;
#X connect 7 0 62 1;
#X connect 8 0 34 0;
#X connect 8 0 46 0;
#X connect 9 0 63 1;
#X connect 10 0 64 1;
#X connect 11 0 47 1;
#X connect 11 0 65 0;
#X connect 12 0 48 0;
#X connect 13 0 49 0;
#X connect 26 0 36 0;
#X connect 27 0 28 0;
#X connect 28 0 29 0;
#X connect 28 0 64 0;
#X connect 29 0 61 0;
#X connect 29 0 62 0;
#X connect 29 0 63 0;
#X connect 30 0 35 1;
#X connect 31 0 44 2;
#X connect 32 0 42 2;
#X connect 33 0 40 2;
#X connect 34 0 45 2;
#X connect 35 0 36 1;
#X connect 36 0 38 0;
#X connect 38 0 37 0;
#X connect 39 0 40 1;
#X connect 40 0 51 0;
#X connect 41 0 42 1;
#X connect 42 0 35 0;
#X connect 43 0 44 1;
#X connect 44 0 58 0;
#X connect 45 0 50 0;
#X connect 46 0 45 1;
#X connect 47 0 29 1;
#X connect 47 0 59 0;
#X connect 48 0 47 0;
#X connect 49 0 48 1;
#X connect 50 0 53 0;
#X connect 51 0 52 0;
#X connect 52 0 35 1;
#X connect 53 0 26 1;
#X connect 58 0 26 0;
#X connect 59 0 60 0;
#X connect 60 0 42 0;
#X connect 61 0 44 0;
#X connect 61 0 60 1;
#X connect 62 0 40 0;
#X connect 63 0 45 0;
#X connect 64 0 30 0;
#X connect 65 0 66 0;
#X connect 65 1 66 1;
#X connect 66 0 28 1;
#X restore 222 442 pd synth;
#X obj 529 253 - 1;
#X obj 529 276 / 62;
#X obj 585 253 - 1;
#X obj 208 482 output~;
#X text 67 18 Get PFS File;
#X text 188 18 Process File;
#X msg 366 157 0 0 0 0 0 0 0 0 0 0 0 0;
#X text 473 11 PFS-to-WAV;
#X msg 34 475 start;
#X msg 91 475 stop;
#X obj 25 520 writesf~ 1;
#X msg 25 448 open \$1;
#X obj 25 420 makefilename %s_pfs2wav.wav;
#X text 356 37 (based on the Holmes parallel formant synthesiser);
#X obj 320 96 bng 15 250 50 0 empty empty empty 17 7 0 10 -262144 -1
-1;
#X obj 320 121 t b b b;
#X connect 0 0 3 0;
#X connect 0 0 71 0;
#X connect 1 0 5 0;
#X connect 1 1 87 0;
#X connect 2 0 1 0;
#X connect 2 0 67 0;
#X connect 3 0 1 0;
#X connect 4 0 1 0;
#X connect 5 0 6 0;
#X connect 5 1 7 0;
#X connect 5 2 8 0;
#X connect 5 3 9 0;
#X connect 5 4 10 0;
#X connect 5 5 11 0;
#X connect 5 6 12 0;
#X connect 5 7 13 0;
#X connect 5 8 14 0;
#X connect 5 9 15 0;
#X connect 5 10 16 0;
#X connect 5 11 17 0;
#X connect 6 0 26 0;
#X connect 7 0 35 0;
#X connect 8 0 18 0;
#X connect 9 0 40 0;
#X connect 10 0 22 0;
#X connect 11 0 45 0;
#X connect 12 0 24 0;
#X connect 13 0 50 0;
#X connect 14 0 59 0;
#X connect 15 0 73 0;
#X connect 16 0 75 0;
#X connect 17 0 65 0;
#X connect 18 0 19 0;
#X connect 19 0 20 0;
#X connect 20 0 21 0;
#X connect 21 0 66 2;
#X connect 22 0 30 0;
#X connect 23 0 66 4;
#X connect 24 0 32 0;
#X connect 25 0 66 6;
#X connect 26 0 28 0;
#X connect 27 0 66 0;
#X connect 28 0 29 0;
#X connect 29 0 27 0;
#X connect 30 0 31 0;
#X connect 31 0 23 0;
#X connect 32 0 33 0;
#X connect 33 0 25 0;
#X connect 34 0 66 1;
#X connect 35 0 36 0;
#X connect 36 0 37 1;
#X connect 36 0 38 0;
#X connect 37 0 34 0;
#X connect 38 0 37 0;
#X connect 39 0 66 3;
#X connect 40 0 41 0;
#X connect 41 0 42 1;
#X connect 41 0 43 0;
#X connect 42 0 39 0;
#X connect 43 0 42 0;
#X connect 44 0 66 5;
#X connect 45 0 46 0;
#X connect 46 0 47 1;
#X connect 46 0 48 0;
#X connect 47 0 44 0;
#X connect 48 0 47 0;
#X connect 49 0 66 7;
#X connect 50 0 51 0;
#X connect 51 0 52 1;
#X connect 51 0 53 0;
#X connect 52 0 49 0;
#X connect 53 0 52 0;
#X connect 54 0 66 10;
#X connect 55 0 63 0;
#X connect 56 0 55 1;
#X connect 56 0 57 0;
#X connect 57 0 55 0;
#X connect 58 0 66 8;
#X connect 59 0 60 0;
#X connect 60 0 61 1;
#X connect 60 0 62 0;
#X connect 61 0 58 0;
#X connect 62 0 61 0;
#X connect 63 0 54 0;
#X connect 64 0 66 9;
#X connect 65 0 66 11;
#X connect 66 0 72 0;
#X connect 67 0 70 0;
#X connect 67 0 81 0;
#X connect 68 0 70 0;
#X connect 69 0 2 0;
#X connect 70 0 1 0;
#X connect 71 0 4 0;
#X connect 71 0 85 0;
#X connect 72 0 76 0;
#X connect 72 0 76 1;
#X connect 72 0 83 0;
#X connect 73 0 74 0;
#X connect 74 0 64 0;
#X connect 75 0 56 0;
#X connect 79 0 5 0;
#X connect 81 0 83 0;
#X connect 82 0 83 0;
#X connect 84 0 83 0;
#X connect 85 0 84 0;
#X connect 87 0 88 0;
#X connect 88 0 82 0;
#X connect 88 1 68 0;
#X connect 88 2 79 0;
