#N canvas 93 160 284 219 10;
#X obj 31 18 inlet;
#X obj 31 41 swap 1;
#X obj 31 90 -;
#X obj 85 90 +;
#X obj 31 116 /;
#X obj 31 64 t f f;
#X obj 73 65 t f f;
#X obj 31 168 outlet;
#X obj 106 18 inlet;
#X obj 31 142 *;
#X connect 0 0 1 0;
#X connect 1 0 5 0;
#X connect 1 1 6 0;
#X connect 2 0 4 0;
#X connect 3 0 4 1;
#X connect 4 0 9 0;
#X connect 5 0 2 0;
#X connect 5 1 3 0;
#X connect 6 0 2 1;
#X connect 6 1 3 1;
#X connect 8 0 9 1;
#X connect 9 0 7 0;
