#N canvas 964 26 885 746 12;
#X text -58 -30 tremolo;
#X obj 55 23 loadbang;
#X obj 63 56 bng 15 250 50 0 empty empty empty 17 7 0 10 -262144 -1
-1;
#X obj -40 101 delay 500;
#X obj 58 157 readsf~;
#X msg 62 104 open speech.wav;
#X msg -41 136 start;
#X obj 131 563 output~;
#X obj -149 253 delwrite~ delayline 1000;
#X obj 201 401 vd~ delayline;
#X obj 206 344 sig~;
#X floatatom 206 315 5 0 0 0 - - -;
#X obj 209 286 hsl 128 15 1 1000 1 0 empty empty delay -2 -8 0 10 -262144
-1 -1 2959 1;
#X obj 12 573 wsprobe~;
#X obj 82 458 +~;
#X obj 190 54 LFO~ 10 1;
#X obj 119 420 *~;
#X obj -126 174 r~ feedback;
#X obj 420 466 sig~;
#X obj 388 370 hsl 128 15 0 1 0 0 empty empty feedback -2 -8 0 10 -262144
-1 -1 5200 1;
#X floatatom 419 427 5 0 0 0 - - -;
#X obj 419 502 *~;
#X obj 421 551 s~ feedback;
#X obj -169 457 wsprobe~-help;
#X msg 280 258 5;
#X msg 244 -27 0.4;
#X msg 184 13 10;
#X connect 1 0 2 0;
#X connect 2 0 5 0;
#X connect 2 0 3 0;
#X connect 3 0 6 0;
#X connect 4 0 8 0;
#X connect 4 0 14 0;
#X connect 4 1 2 0;
#X connect 5 0 4 0;
#X connect 6 0 4 0;
#X connect 9 0 16 1;
#X connect 10 0 9 0;
#X connect 11 0 10 0;
#X connect 12 0 11 0;
#X connect 14 0 7 0;
#X connect 14 0 7 1;
#X connect 14 0 13 0;
#X connect 14 0 21 0;
#X connect 15 0 16 0;
#X connect 16 0 14 1;
#X connect 17 0 8 0;
#X connect 18 0 21 1;
#X connect 19 0 20 0;
#X connect 20 0 18 0;
#X connect 21 0 22 0;
#X connect 24 0 12 0;
#X connect 25 0 15 1;
#X connect 26 0 15 0;
