#N canvas 986 102 907 717 12;
#X text -51 77 tremolo;
#X obj 11 115 loadbang;
#X obj 19 148 bng 15 250 50 0 empty empty empty 17 7 0 10 -262144 -1
-1;
#X obj -84 193 delay 500;
#X obj 14 249 readsf~;
#X msg 18 196 open speech.wav;
#X msg -85 228 start;
#X obj 12 409 *~;
#X obj 110 342 sig~;
#X obj -53 475 output~;
#X obj 154 468 wsprobe~;
#X floatatom 181 39 5 0 0 0 - - -;
#X floatatom 305 337 5 0 0 0 - - -;
#X obj 149 115 LFO~ 10 1;
#X connect 1 0 2 0;
#X connect 2 0 5 0;
#X connect 2 0 3 0;
#X connect 3 0 6 0;
#X connect 4 0 7 0;
#X connect 4 1 2 0;
#X connect 5 0 4 0;
#X connect 6 0 4 0;
#X connect 7 0 9 0;
#X connect 7 0 10 0;
#X connect 7 0 9 1;
#X connect 8 0 7 1;
#X connect 11 0 13 1;
#X connect 13 0 7 1;
#X connect 13 1 12 0;
#X connect 13 2 8 0;
